<svg width="43" height="17" viewBox="0 0 43 17" fill="none" xmlns="http://www.w3.org/2000/svg">
<path d="M1.30655 13.0902L0 15.9468H0.55503L0.796084 15.4222H2.36597L2.61107 15.9468H3.17623L1.86968 13.0902H1.30655ZM1.54558 13.6049H1.60635L2.16948 14.9605H0.996624L1.54558 13.6049ZM6.12762 14.2847H4.86158V14.713L5.61715 14.7523V15.3417C5.52202 15.4019 5.41828 15.4483 5.30925 15.4792C5.1879 15.5155 5.06149 15.5334 4.9345 15.5323C4.79575 15.5352 4.65785 15.5105 4.52937 15.4596C4.40883 15.4159 4.2986 15.349 4.20527 15.2631C4.10549 15.1699 4.02804 15.0565 3.97839 14.9311C3.9242 14.7965 3.89671 14.6532 3.89737 14.5087C3.89778 14.3742 3.92388 14.241 3.97434 14.1158C4.0195 13.9995 4.0884 13.8932 4.17691 13.8034C4.27577 13.7081 4.39303 13.6327 4.52199 13.5814C4.65095 13.5302 4.78907 13.5041 4.92843 13.5048C5.0355 13.502 5.14246 13.5133 5.24646 13.5382C5.34134 13.5599 5.43174 13.5971 5.51384 13.6482C5.60615 13.7035 5.69118 13.7694 5.76705 13.8446L6.11546 13.5067C6.00957 13.4024 5.89125 13.3108 5.763 13.2336C5.64306 13.1652 5.51337 13.1142 5.37812 13.0824C5.2306 13.0499 5.0797 13.0341 4.92843 13.0352C4.71492 13.0327 4.50297 13.0707 4.30452 13.1472C4.11961 13.2188 3.95099 13.3249 3.80824 13.4596C3.71602 13.5464 3.6363 13.6448 3.57124 13.7523C3.43682 13.9815 3.36696 14.241 3.36867 14.5048C3.36928 14.6894 3.40146 14.8726 3.46388 15.047C3.52322 15.2072 3.61097 15.3561 3.72316 15.4871C3.81398 15.5924 3.9213 15.6832 4.04119 15.7562C4.16643 15.8339 4.303 15.8928 4.44632 15.9311C4.6037 15.9712 4.76571 15.9916 4.92843 15.992C5.07608 15.9937 5.22329 15.9759 5.36597 15.9389C5.49362 15.9045 5.61567 15.853 5.72856 15.7857L5.78325 15.9822L6.12762 15.9134V14.2847ZM9.19041 14.1452C9.19217 14.0034 9.16319 13.8629 9.10533 13.7326C9.0507 13.6034 8.96957 13.4862 8.86685 13.3883C8.76413 13.2903 8.64196 13.2137 8.50776 13.1629C8.3696 13.1107 8.22256 13.084 8.07427 13.0843H6.6239V15.9468H7.1526V15.1609H8.05604L8.53207 15.9468H9.13977L8.95746 15.6541L8.76908 15.3554L8.58474 15.0666C8.6635 15.031 8.73706 14.9854 8.80351 14.9311C8.87008 14.8822 8.92938 14.8247 8.97974 14.7602C9.04942 14.6732 9.10227 14.5747 9.13572 14.4694C9.17122 14.3647 9.18968 14.2554 9.19041 14.1452ZM7.1526 13.5558H8.06212C8.14996 13.5571 8.23668 13.5751 8.31735 13.6089C8.39152 13.6416 8.45674 13.6907 8.50776 13.7523C8.5558 13.8019 8.59239 13.8608 8.61512 13.9252C8.64436 13.9951 8.65949 14.0698 8.65969 14.1452C8.65822 14.2123 8.64521 14.2787 8.6212 14.3417C8.59605 14.4133 8.55761 14.4799 8.50776 14.5381C8.45788 14.5919 8.3963 14.6341 8.32748 14.6619C8.25244 14.6926 8.17191 14.7086 8.09048 14.7091H7.1526V13.5558ZM11.0358 13.0372C10.8866 13.0368 10.7381 13.056 10.5942 13.0941C10.4581 13.1282 10.3278 13.1811 10.2073 13.2513C10.0911 13.3175 9.98538 13.3995 9.89332 13.4949C9.76172 13.6287 9.65849 13.7862 9.58947 13.9586C9.51573 14.1365 9.47857 14.3267 9.48008 14.5185C9.48025 14.6447 9.49797 14.7702 9.53275 14.8918C9.56448 15.0103 9.61143 15.1245 9.67252 15.2317C9.73132 15.3363 9.80346 15.4333 9.88724 15.5205C9.9807 15.6161 10.0862 15.6999 10.2012 15.77C10.421 15.8981 10.6686 15.9746 10.9243 15.9933C11.18 16.0121 11.4367 15.9726 11.6739 15.878C11.8566 15.8069 12.0227 15.7006 12.1619 15.5655C12.3012 15.4305 12.4108 15.2694 12.4841 15.0922C12.5565 14.9091 12.5929 14.7145 12.5915 14.5185C12.5919 14.386 12.5749 14.2539 12.5409 14.1256C12.5073 14.0008 12.4576 13.8807 12.393 13.768C12.3285 13.6537 12.2481 13.5486 12.1539 13.4556C12.0146 13.3221 11.8484 13.2178 11.6658 13.1492C11.466 13.0725 11.2526 13.0345 11.0378 13.0372H11.0358ZM10.0047 14.5185C10.0055 14.3841 10.0316 14.2509 10.0817 14.1256C10.128 14.0093 10.1968 13.9026 10.2843 13.8112C10.3436 13.7469 10.4118 13.6907 10.4868 13.6442C10.567 13.5986 10.6527 13.5629 10.7421 13.5382C10.8339 13.5144 10.9286 13.5025 11.0236 13.5028C11.1629 13.5029 11.3007 13.5303 11.4288 13.5833C11.5556 13.6357 11.6706 13.7118 11.767 13.8073C11.8543 13.8981 11.923 14.0041 11.9696 14.1197C12.0709 14.3792 12.0709 14.6657 11.9696 14.9252C11.9237 15.0417 11.8549 15.1484 11.767 15.2395C11.6735 15.3376 11.5596 15.4153 11.4328 15.4674C11.3012 15.523 11.159 15.5511 11.0155 15.5499C10.8712 15.5504 10.7284 15.5217 10.5962 15.4655C10.4706 15.4124 10.3581 15.334 10.266 15.2356C10.1781 15.1446 10.1093 15.0378 10.0635 14.9213C10.0126 14.7961 9.98648 14.6628 9.9865 14.5283L10.0047 14.5185ZM15.6421 13.0902L14.3356 15.9468H14.8906L15.1317 15.4222H16.7016L16.9487 15.9468H17.5118L16.2053 13.0902H15.6421ZM15.8832 13.6049H15.9419L16.5051 14.9605H15.3322L15.8832 13.6049ZM17.8258 13.8604C17.8246 13.9573 17.841 14.0538 17.8744 14.1452C17.9048 14.2179 17.9488 14.2845 18.0041 14.3417C18.0829 14.4182 18.1774 14.4778 18.2816 14.5165C18.3988 14.5625 18.5211 14.5948 18.6462 14.6128L19.2984 14.7228C19.3801 14.736 19.4607 14.7551 19.5395 14.7798C19.611 14.8007 19.6792 14.8311 19.7421 14.8702C19.776 14.8988 19.8047 14.9326 19.8271 14.9704C19.8477 15.0202 19.856 15.074 19.8515 15.1275C19.8524 15.1782 19.842 15.2285 19.8211 15.2749C19.7996 15.3155 19.77 15.3516 19.734 15.381C19.6388 15.4441 19.5312 15.4876 19.418 15.5087C19.271 15.5345 19.1216 15.5456 18.9723 15.5421C18.8035 15.5425 18.635 15.5254 18.47 15.491C18.2883 15.4507 18.1107 15.3948 17.9392 15.324L17.7772 15.7444C17.8716 15.7879 17.9683 15.8266 18.0668 15.8603C18.1581 15.8931 18.2515 15.92 18.3464 15.9409C18.444 15.9615 18.5427 15.9766 18.6421 15.9861C18.7454 15.9861 18.8589 16.0018 18.9804 16.0018C19.1098 16.0018 19.239 15.994 19.3673 15.9782C19.4896 15.962 19.6102 15.9357 19.7279 15.8996C19.8358 15.8673 19.9382 15.8196 20.0317 15.7582C20.0985 15.7134 20.1579 15.659 20.208 15.5971C20.2601 15.5317 20.2999 15.4579 20.3255 15.379C20.3555 15.2909 20.3705 15.1987 20.37 15.1059C20.3705 15.0027 20.352 14.9003 20.3153 14.8034C20.2811 14.7199 20.2294 14.6443 20.1634 14.5814C20.0951 14.5193 20.018 14.4671 19.9345 14.4262C19.8472 14.3821 19.7556 14.3465 19.661 14.3201C19.5644 14.2927 19.4664 14.2704 19.3673 14.2533L18.7596 14.1492L18.6502 14.1275C18.6118 14.1185 18.5739 14.1073 18.5368 14.0941C18.502 14.0819 18.4692 14.0647 18.4396 14.0431C18.407 14.0247 18.3787 13.9999 18.3565 13.9704C18.3369 13.9397 18.3264 13.9043 18.3261 13.8682C18.3249 13.8194 18.3375 13.7711 18.3626 13.7287C18.3859 13.687 18.4193 13.6513 18.4598 13.6246C18.514 13.5919 18.5736 13.5686 18.6361 13.5558C18.7024 13.5381 18.7702 13.5257 18.8386 13.5185C18.9136 13.5185 18.9926 13.5087 19.0736 13.5087C19.232 13.5087 19.3897 13.5271 19.5436 13.5637C19.7121 13.6052 19.8758 13.6638 20.0317 13.7385L20.2343 13.3338C20.1023 13.2661 19.9647 13.2089 19.8231 13.1629C19.696 13.1233 19.566 13.0931 19.4342 13.0725C19.3099 13.0563 19.1848 13.0477 19.0594 13.047C18.9394 13.0472 18.8196 13.0558 18.7009 13.0725C18.5938 13.0885 18.4886 13.1148 18.3869 13.1511C18.2957 13.1835 18.2097 13.2285 18.1317 13.2847C18.0397 13.3483 17.9641 13.4317 17.9109 13.5283C17.8559 13.6309 17.8267 13.7447 17.8258 13.8604ZM20.7083 13.8604C20.7062 13.9574 20.7227 14.054 20.7569 14.1452C20.7859 14.2181 20.8292 14.2849 20.8845 14.3417C20.964 14.4174 21.0584 14.4769 21.1621 14.5165C21.28 14.5622 21.4031 14.5945 21.5287 14.6128L22.181 14.7228C22.262 14.736 22.3419 14.7551 22.42 14.7798C22.4883 14.8007 22.5531 14.8312 22.6124 14.8702C22.6468 14.8983 22.6756 14.9323 22.6975 14.9704C22.7195 15.0131 22.7313 15.0601 22.7319 15.1079C22.7322 15.1587 22.7211 15.209 22.6995 15.2552C22.6795 15.2967 22.6496 15.3331 22.6124 15.3613C22.5174 15.4248 22.4098 15.4683 22.2964 15.489C22.1501 15.5147 22.0015 15.5259 21.8528 15.5224C21.6839 15.5228 21.5155 15.5057 21.3504 15.4714C21.1696 15.4338 20.9927 15.3805 20.8217 15.3122L20.6597 15.7326C20.7589 15.7778 20.8623 15.8171 20.9473 15.8486C21.0394 15.8811 21.1334 15.908 21.2289 15.9291C21.3258 15.9497 21.4239 15.9648 21.5226 15.9743C21.628 15.9743 21.7394 15.99 21.8629 15.99C21.9923 15.9901 22.1215 15.9822 22.2498 15.9664C22.3721 15.9502 22.4927 15.9239 22.6104 15.8879C22.7177 15.8555 22.8194 15.8079 22.9122 15.7464C23.0525 15.6564 23.1569 15.5226 23.208 15.3672C23.2373 15.279 23.2516 15.1868 23.2505 15.0941C23.253 14.9908 23.2344 14.888 23.1958 14.7916C23.1624 14.7082 23.1113 14.6326 23.0459 14.5696C22.9772 14.508 22.9002 14.4558 22.817 14.4144C22.7297 14.3703 22.6381 14.3347 22.5436 14.3083C22.4469 14.2812 22.3489 14.2589 22.2498 14.2415L21.6421 14.1374L21.5327 14.1158C21.4943 14.1059 21.4578 14.0961 21.4193 14.0824C21.3854 14.0696 21.3533 14.0524 21.3241 14.0313C21.2911 14.0135 21.2627 13.9886 21.2411 13.9586C21.2205 13.9283 21.2099 13.8927 21.2107 13.8564C21.2098 13.8078 21.2216 13.7598 21.2451 13.7169C21.2699 13.6755 21.3038 13.64 21.3444 13.6128C21.3957 13.5773 21.4534 13.5513 21.5145 13.5362C21.5809 13.5185 21.6486 13.506 21.7171 13.4989C21.792 13.4989 21.871 13.489 21.9521 13.489C22.1104 13.4893 22.2682 13.5077 22.422 13.544C22.5906 13.5856 22.7542 13.6442 22.9102 13.7189L23.1128 13.3142C22.979 13.2457 22.8394 13.1885 22.6955 13.1433C22.5683 13.1038 22.4383 13.0736 22.3066 13.0529C22.1817 13.0366 22.0558 13.028 21.9298 13.0273C21.8105 13.0277 21.6913 13.0362 21.5733 13.0529C21.4661 13.0686 21.3609 13.0949 21.2593 13.1315C21.1677 13.1644 21.0811 13.2094 21.002 13.2651C20.9111 13.3293 20.8364 13.4125 20.7833 13.5087C20.7267 13.6142 20.6975 13.7316 20.6982 13.8505L20.7083 13.8604ZM24.1519 13.0902H23.6354V15.9468H24.1519V13.0902ZM24.5895 13.8604C24.5876 13.9572 24.6034 14.0537 24.6361 14.1452C24.6665 14.2179 24.7104 14.2845 24.7657 14.3417C24.8448 14.4179 24.9393 14.4774 25.0432 14.5165C25.1605 14.5623 25.2828 14.5946 25.4078 14.6128L26.0621 14.7228C26.1431 14.7362 26.223 14.7553 26.3011 14.7798C26.3726 14.8007 26.4408 14.8311 26.5037 14.8702C26.5376 14.8988 26.5664 14.9326 26.5888 14.9704C26.6102 15.0132 26.6213 15.0603 26.6212 15.1079C26.6221 15.1586 26.6118 15.2088 26.5908 15.2552C26.57 15.2963 26.5403 15.3325 26.5037 15.3613C26.4087 15.4248 26.3011 15.4683 26.1877 15.489C26.0407 15.5148 25.8914 15.526 25.7421 15.5224C25.5732 15.5228 25.4048 15.5057 25.2397 15.4714C25.0601 15.4369 24.8839 15.3876 24.713 15.324L24.551 15.7444C24.6523 15.7896 24.7535 15.8289 24.8406 15.8603C24.9321 15.8926 25.0254 15.9195 25.1202 15.9409C25.2178 15.9615 25.3165 15.9766 25.4159 15.9861C25.5192 15.9861 25.6327 16.0018 25.7542 16.0018C25.8836 16.0018 26.0128 15.994 26.1411 15.9782C26.264 15.962 26.3853 15.9357 26.5037 15.8996C26.611 15.8673 26.7128 15.8197 26.8055 15.7582C26.8723 15.7134 26.9317 15.659 26.9818 15.5971C27.0346 15.5318 27.075 15.458 27.1013 15.379C27.1306 15.2908 27.145 15.1986 27.1438 15.1059C27.1463 15.0026 27.1277 14.8998 27.0891 14.8034C27.0549 14.7199 27.0032 14.6443 26.9372 14.5814C26.8696 14.5194 26.7932 14.4671 26.7103 14.4262C26.6229 14.3824 26.5313 14.3469 26.4369 14.3201C26.3396 14.2926 26.2343 14.271 26.1431 14.2533L25.5354 14.1492L25.4261 14.1275C25.3876 14.1185 25.3498 14.1073 25.3126 14.0941C25.278 14.0815 25.2452 14.0643 25.2154 14.0431C25.1834 14.0247 25.1558 13.9999 25.1344 13.9704C25.1138 13.9401 25.1032 13.9045 25.104 13.8682C25.1031 13.8196 25.1149 13.7716 25.1384 13.7287C25.1618 13.687 25.1951 13.6513 25.2357 13.6246C25.2874 13.5898 25.345 13.5639 25.4058 13.548C25.4722 13.5304 25.54 13.518 25.6084 13.5106C25.6853 13.5106 25.7623 13.5008 25.8433 13.5008C26.0085 13.4992 26.1732 13.5177 26.3336 13.5558C26.5024 13.5967 26.6661 13.6554 26.8217 13.7307L27.0243 13.326C26.8904 13.2579 26.7508 13.2007 26.607 13.155C26.4792 13.1154 26.3486 13.0852 26.2161 13.0647C26.0918 13.0484 25.9667 13.0399 25.8413 13.0391C25.7213 13.0395 25.6015 13.048 25.4828 13.0647C25.3757 13.0808 25.2706 13.1072 25.1688 13.1433C25.078 13.1766 24.9922 13.2216 24.9136 13.2769C24.8168 13.3432 24.7384 13.4317 24.6854 13.5345C24.6323 13.6374 24.6064 13.7513 24.6097 13.8662L24.5895 13.8604ZM27.3059 13.5558H28.4018V15.9468H28.9163V13.5558H30.0122V13.0902H27.3059V13.5558ZM31.1546 13.1H31.7178L33.0182 15.9468H32.451L32.208 15.4222H30.6381L30.397 15.9468H29.842L31.1486 13.0902L31.1546 13.1ZM31.3937 13.6148L30.8447 14.9704H32.0054L31.4423 13.6148H31.3937ZM35.6212 13.1V15.1472L33.8791 13.0902H33.393V15.9468H33.9075V13.8937L35.6415 15.9468H36.1276V13.0902L35.6212 13.1ZM37.0392 14.5224C37.0389 14.4283 37.0512 14.3345 37.0756 14.2435C37.0987 14.1563 37.1335 14.0724 37.1789 13.9939C37.2884 13.806 37.4606 13.6598 37.6671 13.5794C37.7959 13.5292 37.9335 13.5038 38.0722 13.5048C38.2334 13.5031 38.3933 13.5332 38.5422 13.5932C38.6916 13.6564 38.8287 13.7441 38.9473 13.8525L39.2633 13.5087C39.155 13.4103 39.0362 13.3233 38.9088 13.2493C38.7878 13.1816 38.6576 13.1307 38.5219 13.0981C38.3741 13.0631 38.2224 13.046 38.0702 13.047C37.8547 13.0459 37.6409 13.0846 37.4402 13.1609C37.2565 13.2305 37.0896 13.3362 36.95 13.4714C36.8128 13.6072 36.7034 13.7673 36.628 13.9429C36.4703 14.3209 36.4703 14.7436 36.628 15.1216C36.7041 15.2994 36.8164 15.4604 36.9581 15.5951C37.0996 15.728 37.266 15.8333 37.4483 15.9055C37.6455 15.9819 37.8559 16.0205 38.0682 16.0195C38.2203 16.0211 38.372 16.0046 38.5199 15.9704C38.656 15.9373 38.7864 15.885 38.9068 15.8152C39.0353 15.7308 39.1529 15.6319 39.2573 15.5205L38.9413 15.1825C38.822 15.2898 38.6851 15.3768 38.5361 15.4399C38.3871 15.4996 38.2274 15.5303 38.0662 15.5303C37.9269 15.5284 37.7893 15.5004 37.661 15.4478C37.5342 15.3954 37.4192 15.3193 37.3228 15.2238C37.2345 15.1361 37.1655 15.0318 37.1202 14.9173C37.0674 14.7859 37.0412 14.6458 37.0432 14.5048L37.0392 14.5224ZM39.6502 15.9566H42.0061V15.4851H40.183V14.6796H41.7529V14.2179H40.183V13.5558H41.9311V13.0902H39.6421L39.6502 15.9566Z" fill="white"/>
<path d="M0.386963 1.75245V10.6699H4.21748C4.84525 10.6723 5.46808 10.5624 6.05476 10.3458C6.59524 10.1482 7.09019 9.84912 7.5112 9.46562C7.79972 9.19595 8.04791 8.88845 8.24854 8.55206C8.452 8.20676 8.6073 7.8368 8.71039 7.45186C8.82011 7.04725 8.87527 6.63055 8.87447 6.21218C8.87813 5.62636 8.77032 5.04492 8.55644 4.49705C8.3536 3.98671 8.05018 3.51959 7.66313 3.1218C7.23542 2.69153 6.72105 2.35115 6.15199 2.1218C5.53781 1.87658 4.87964 1.75172 4.21546 1.75442L0.386963 1.75245ZM4.15671 3.1945C4.59922 3.18967 5.03859 3.26702 5.45111 3.42239C5.81539 3.56212 6.14629 3.77274 6.42343 4.04125C6.69349 4.31339 6.90066 4.63822 7.03112 4.9941C7.17417 5.38487 7.24281 5.7976 7.23369 6.21218C7.23989 6.63267 7.16713 7.05075 7.01897 7.44597C6.88092 7.80629 6.66707 8.1348 6.39102 8.41061C6.11512 8.67491 5.78626 8.88152 5.42478 9.01768C5.01456 9.17107 4.57811 9.24773 4.13848 9.24361H1.99534V3.1945H4.15671ZM18.1783 5.02357C18.1806 4.57997 18.0889 4.14063 17.9089 3.73281C17.7357 3.3482 17.4889 2.99889 17.1817 2.70334C16.8587 2.39759 16.4757 2.15777 16.0554 1.99803C15.6228 1.83438 15.1626 1.75043 14.6982 1.75049H10.1628V10.6699H11.8178V8.25147H14.6375L16.1243 10.6699H17.994L17.4207 9.75835C17.2182 9.44597 17.0298 9.13556 16.8333 8.82318C16.6368 8.5108 16.4464 8.21021 16.262 7.92141C16.5148 7.82049 16.7531 7.68843 16.971 7.52848C17.4571 7.16035 17.8183 6.65945 18.0082 6.09037C18.1231 5.7492 18.1805 5.3923 18.1783 5.0334V5.02357ZM11.8178 3.21021H14.6537C14.9328 3.20896 15.2089 3.26521 15.4639 3.37524C15.7 3.47437 15.9083 3.62657 16.0716 3.81925C16.2193 3.97611 16.3336 4.15972 16.4079 4.35953C16.5752 4.79074 16.5752 5.26622 16.4079 5.69744C16.3257 5.91487 16.2013 6.11496 16.0413 6.28683C15.8869 6.45771 15.6942 6.5921 15.4781 6.67976C15.244 6.77489 14.9926 6.82365 14.7388 6.82318H11.8178V3.21021ZM40.1506 1.75245V8.17288L34.7117 1.75245H33.1945V10.6699H34.8029V4.26522L40.2134 10.6699H41.7286V1.75245H40.1506Z" fill="white"/>
<path fill-rule="evenodd" clip-rule="evenodd" d="M26.6677 0C27.8423 0.219033 28.9259 0.764555 29.7865 1.57014C30.6471 2.37573 31.2477 3.40663 31.5151 4.53733C31.7825 5.66802 31.7052 6.84972 31.2925 7.93856C30.8799 9.02739 30.1498 9.97637 29.191 10.67C28.2323 11.3636 27.0863 11.7718 25.8926 11.8451C24.6989 11.9183 23.509 11.6534 22.4677 11.0825C21.4265 10.5117 20.5789 9.65951 20.028 8.6298C19.4772 7.6001 19.2469 6.43727 19.3652 5.28291C19.3186 7.40275 20.5198 9.51277 22.4746 10.4931C23.4725 11.0082 24.6034 11.2307 25.7293 11.1334C26.8553 11.0362 27.9278 10.6234 28.8162 9.94544C29.7046 9.26747 30.3705 8.35354 30.7328 7.315C31.0951 6.27645 31.1382 5.15813 30.8568 4.09627C30.3666 2.11198 28.6711 0.559921 26.6677 0V0Z" fill="white"/>
<path fill-rule="evenodd" clip-rule="evenodd" d="M20.8784 8.448C23.1049 8.74425 25.2749 9.35381 27.32 10.2574C25.0715 11.1671 22.2457 10.4225 20.8784 8.448Z" fill="#5C922F"/>
<path fill-rule="evenodd" clip-rule="evenodd" d="M20.1208 7.01562C23.2951 7.01759 26.5361 7.46553 29.4753 8.64431C29.0431 9.12838 28.5457 9.55393 27.9966 9.90953C25.578 8.92485 23.048 8.22056 20.4591 7.8113L20.1208 7.01562Z" fill="#5C922F"/>
<path fill-rule="evenodd" clip-rule="evenodd" d="M19.9102 5.69753C23.4307 5.29281 27.0526 5.43034 30.474 6.38122C30.4132 7.00991 30.1235 7.58555 29.8339 8.1494C26.658 7.06447 23.3197 6.49365 19.9527 6.45981C19.9365 6.20637 19.9223 5.9549 19.9102 5.69753Z" fill="#5C922F"/>
<path fill-rule="evenodd" clip-rule="evenodd" d="M23.7002 1.73475C23.988 1.55217 24.3282 1.46308 24.6715 1.48039C25.0149 1.4977 25.3438 1.62049 25.6104 1.83102C25.7145 1.91628 25.7987 2.02204 25.8573 2.14127C25.916 2.2605 25.9479 2.39048 25.9507 2.52257H23.2242C23.229 2.36425 23.2743 2.20957 23.356 2.07241C23.4377 1.93525 23.5532 1.8199 23.6921 1.73671L23.7002 1.73475ZM20.2222 1.76815C20.2147 1.75679 20.2079 1.74498 20.2019 1.73278C20.2019 1.74457 20.2019 1.76815 20.2019 1.7819C19.5203 1.72046 18.8344 1.71586 18.152 1.76815C17.9919 1.77124 17.8347 1.80953 17.6921 1.88013C17.7694 1.93545 17.8616 1.96756 17.9575 1.97247C18.7534 2.06219 19.5572 2.06548 20.3539 1.98229C20.3539 2.17876 20.3539 2.38897 20.3539 2.59133C20.3539 2.67385 20.2526 2.72296 20.287 2.80941C20.3214 2.89585 20.4511 2.9096 20.5443 2.90567C20.5767 2.95086 20.6091 3.00783 20.6699 3.02552C21.7819 3.26324 22.8981 3.48721 24.0102 3.73082C24.0354 3.81953 24.0817 3.90127 24.1454 3.9695C24.2091 4.03774 24.2883 4.09056 24.3768 4.12375C24.3768 4.37915 24.3768 4.63259 24.3768 4.88799L24.7819 5.02355C24.7819 4.76815 24.7941 4.37719 24.7961 4.12375C24.8825 4.08875 24.9596 4.03549 25.022 3.96784C25.0844 3.9002 25.1304 3.81989 25.1567 3.73278L28.4666 3.03927C28.5355 3.03927 28.574 2.96854 28.6084 2.9155C28.7077 2.9155 28.8596 2.93711 28.892 2.8153C28.9244 2.69349 28.7948 2.67581 28.811 2.58544C28.811 2.38897 28.811 2.19251 28.811 1.99605C29.5422 2.06611 30.2783 2.07335 31.0108 2.01766L30.9865 2.00587C31.1558 2.0157 31.3242 1.97674 31.4707 1.89389C31.2992 1.81205 31.1108 1.76906 30.9197 1.76815C30.7171 1.76815 30.5146 1.74654 30.2978 1.73671C29.8927 1.72493 29.4754 1.73671 29.0662 1.76225L29.0885 1.77404H28.967C28.9543 1.71858 28.9225 1.66896 28.8768 1.6334C28.8312 1.59783 28.7743 1.57844 28.7158 1.57844C28.6572 1.57844 28.6004 1.59783 28.5547 1.6334C28.509 1.66896 28.4772 1.71858 28.4646 1.77404C28.1 1.74064 27.7333 1.73082 27.3667 1.73082C26.9344 1.72249 26.5022 1.75473 26.0763 1.82709C26.0379 1.8428 25.967 1.8487 25.971 1.89781C26.0591 1.95021 26.1595 1.97996 26.2627 1.98426C26.7562 2.03829 27.2531 2.05798 27.7495 2.0432C28.0396 2.03932 28.3292 2.01767 28.6165 1.97836C28.6165 2.20037 28.6165 2.42041 28.6165 2.64241H20.5544C20.5544 2.42041 20.5544 2.1984 20.5544 1.9764C21.1591 2.04869 21.7694 2.06645 22.3775 2.02945C22.6375 2.02457 22.8962 1.99296 23.1493 1.93514C23.1795 1.92467 23.2061 1.90631 23.2262 1.8821C23.0926 1.81714 22.9462 1.78095 22.7968 1.77601C22.1055 1.71413 21.4098 1.71413 20.7185 1.77601C20.6982 1.53043 20.2485 1.50685 20.2364 1.76029L20.2222 1.76815ZM24.5409 3.2318C24.6323 3.22454 24.7236 3.2476 24.7998 3.29721C24.876 3.34682 24.9325 3.42004 24.9602 3.50489C24.9884 3.60153 24.9762 3.70508 24.9261 3.793C24.876 3.88093 24.7922 3.94613 24.6928 3.97443C24.5948 4.00268 24.4892 3.99233 24.399 3.94563C24.3087 3.89893 24.2411 3.81964 24.2107 3.72493C24.1955 3.67136 24.1921 3.61527 24.2008 3.56036C24.2096 3.50544 24.2303 3.45295 24.2615 3.40635C24.2927 3.35974 24.3337 3.32009 24.3819 3.29C24.43 3.25991 24.4842 3.24008 24.5409 3.2318ZM24.4518 3.31235C24.5228 3.28386 24.6017 3.27982 24.6754 3.30091C24.7491 3.32201 24.8132 3.36695 24.8569 3.42827C24.8835 3.46827 24.9012 3.51322 24.9089 3.56024C24.9166 3.60727 24.914 3.65533 24.9015 3.70135C24.8778 3.78004 24.8244 3.84719 24.7519 3.88942C24.6795 3.93165 24.5933 3.94587 24.5105 3.92925C24.4513 3.91644 24.3966 3.88859 24.3521 3.84855C24.3076 3.8085 24.2749 3.7577 24.2573 3.70135C24.2342 3.6246 24.2408 3.54232 24.2759 3.46997C24.311 3.39762 24.3721 3.34017 24.4477 3.30842L24.4518 3.31235ZM24.5551 3.47935C24.5785 3.47516 24.6027 3.47639 24.6256 3.48295C24.6485 3.4895 24.6694 3.50119 24.6868 3.51707C24.7042 3.53295 24.7174 3.55257 24.7255 3.57435C24.7336 3.59613 24.7363 3.61944 24.7333 3.64241C24.7299 3.66949 24.7186 3.69508 24.7009 3.71625C24.6831 3.73743 24.6596 3.75333 24.633 3.76214C24.6064 3.77096 24.5777 3.77232 24.5503 3.76609C24.5229 3.75986 24.4979 3.74627 24.4781 3.72689C24.459 3.70804 24.4454 3.68455 24.4389 3.65888C24.4323 3.63321 24.433 3.6063 24.4409 3.58099C24.4488 3.55567 24.4635 3.53287 24.4836 3.51499C24.5037 3.49711 24.5284 3.48479 24.5551 3.47935ZM30.2978 1.74457C30.5057 1.73533 30.714 1.74586 30.9197 1.77601C30.711 1.76815 30.5044 1.74654 30.2978 1.73671V1.74457Z" fill="white"/>
</svg>
